<?xml version="1.0" standalone="no"?>
<!DOCTYPE svg PUBLIC "-//W3C//DTD SVG 20010904//EN"
 "http://www.w3.org/TR/2001/REC-SVG-20010904/DTD/svg10.dtd">
<svg version="1.0" xmlns="http://www.w3.org/2000/svg"
 width="626.000000pt" height="417.000000pt" viewBox="0 0 626.000000 417.000000"
 preserveAspectRatio="xMidYMid meet">

<g transform="translate(0.000000,417.000000) scale(0.100000,-0.100000)"
fill="#000000" stroke="none">
<path d="M3000 3514 c-75 -76 -98 -104 -80 -99 45 12 273 17 335 7 33 -6 62
-8 63 -7 4 4 -195 198 -207 203 -3 1 -53 -46 -111 -104z"/>
<path d="M2740 3030 c-52 -5 -178 -21 -280 -36 -170 -24 -220 -34 -177 -34 22
0 22 3 -12 -70 -17 -35 -35 -84 -42 -111 -11 -41 -28 -63 -121 -156 l-108
-108 104 -105 c96 -97 105 -110 126 -175 93 -291 310 -508 596 -594 66 -21 76
-28 179 -131 l110 -110 115 114 c99 98 123 116 170 131 104 33 229 106 310
182 77 72 167 179 158 188 -2 3 -65 -11 -139 -30 -312 -81 -599 -125 -819
-125 -209 0 -298 26 -347 100 -13 18 -23 45 -23 59 2 114 146 294 430 541 214
185 280 268 280 347 0 56 -28 85 -101 108 -65 20 -272 28 -409 15z"/>
<path d="M4005 2713 c16 -37 17 -286 3 -355 -8 -38 -12 -68 -9 -68 11 0 221
215 221 225 0 12 -202 215 -214 215 -4 0 -5 -8 -1 -17z"/>
<path d="M3360 955 c0 -101 4 -165 10 -165 17 0 22 44 18 154 -2 58 0 106 4
106 3 0 53 -58 110 -130 57 -71 109 -130 116 -130 9 0 12 40 12 165 0 139 -2
165 -15 165 -12 0 -15 -24 -17 -137 l-3 -136 -108 136 c-60 75 -113 137 -118
137 -5 0 -9 -74 -9 -165z"/>
<path d="M3811 1098 c-5 -13 -34 -84 -65 -157 -59 -143 -62 -151 -46 -151 6 0
21 25 35 55 l24 56 73 -3 73 -3 24 -52 c14 -29 30 -53 37 -53 15 0 20 -12 -60
176 -34 82 -68 150 -74 152 -7 2 -16 -7 -21 -20z m35 -45 c6 -16 21 -52 33
-80 l21 -53 -69 0 -69 0 31 80 c18 44 34 80 37 80 3 0 11 -12 16 -27z"/>
<path d="M4030 956 c0 -140 2 -166 15 -166 12 0 15 24 17 138 l3 137 60 -107
c33 -60 63 -108 67 -108 4 0 32 45 63 100 32 55 61 100 66 100 5 0 9 -58 9
-130 0 -80 4 -130 10 -130 6 0 10 62 10 165 0 129 -3 165 -13 165 -7 0 -43
-52 -79 -116 l-65 -115 -66 113 c-92 161 -97 158 -97 -46z"/>
<path d="M4440 955 l0 -165 111 0 c84 0 110 3 106 13 -2 8 -31 12 -95 12 l-92
0 0 68 0 67 80 0 c47 0 80 4 80 10 0 6 -33 10 -80 10 l-80 0 0 60 0 60 90 0
c73 0 90 3 90 15 0 12 -18 15 -105 15 l-105 0 0 -165z"/>
<path d="M1643 1010 c0 -25 2 -35 4 -22 2 12 2 32 0 45 -2 12 -4 2 -4 -23z"/>
<path d="M2551 1034 c0 -11 3 -14 6 -6 3 7 2 16 -1 19 -3 4 -6 -2 -5 -13z"/>
<path d="M2552 965 c0 -16 2 -22 5 -12 2 9 2 23 0 30 -3 6 -5 -1 -5 -18z"/>
<path d="M1693 953 c15 -2 39 -2 55 0 15 2 2 4 -28 4 -30 0 -43 -2 -27 -4z"/>
<path d="M1642 905 c0 -16 2 -22 5 -12 2 9 2 23 0 30 -3 6 -5 -1 -5 -18z"/>
<path d="M2552 910 c0 -14 2 -19 5 -12 2 6 2 18 0 25 -3 6 -5 1 -5 -13z"/>
<path d="M2318 903 c17 -2 47 -2 65 0 17 2 3 4 -33 4 -36 0 -50 -2 -32 -4z"/>
<path d="M2552 820 c0 -14 2 -19 5 -12 2 6 2 18 0 25 -3 6 -5 1 -5 -13z"/>
</g>
</svg>
